<?xml version="1.0" standalone="no"?>
<!DOCTYPE svg PUBLIC "-//W3C//DTD SVG 20010904//EN"
 "http://www.w3.org/TR/2001/REC-SVG-20010904/DTD/svg10.dtd">
<svg version="1.0" xmlns="http://www.w3.org/2000/svg"
 width="237.000000pt" height="213.000000pt" viewBox="0 0 237.000000 213.000000"
 preserveAspectRatio="xMidYMid meet">
<metadata>
Created by potrace 1.11, written by Peter Selinger 2001-2013
</metadata>
<g transform="translate(0.000000,213.000000) scale(0.100000,-0.100000)"
fill="#000000" stroke="none">
<path d="M653 2093 c-10 -3 -13 -48 -13 -173 l0 -169 45 -7 c25 -3 43 -9 40
-13 -2 -4 -5 -47 -6 -95 -1 -73 -5 -88 -20 -97 -15 -8 -19 -21 -19 -62 0 -29
6 -59 13 -66 10 -11 10 -13 0 -7 -7 4 -13 2 -13 -3 0 -6 6 -11 14 -11 7 0 16
-9 19 -21 4 -14 12 -20 27 -17 l22 3 1 363 c1 306 -1 365 -14 373 -15 9 -75
11 -96 2z"/>
<path d="M807 2094 c-4 -4 -7 -86 -7 -181 0 -160 1 -174 18 -171 16 3 17 -10
16 -162 -1 -114 -5 -165 -13 -168 -8 -3 -10 9 -5 40 4 23 3 39 -2 35 -4 -4 -9
-28 -10 -53 -2 -36 1 -44 12 -40 20 8 18 -4 -3 -20 -17 -11 -16 -13 8 -19 14
-3 43 -5 65 -3 l39 3 2 170 c2 94 0 260 -5 370 l-7 200 -50 3 c-28 2 -54 0
-58 -4z"/>
<path d="M961 1913 c0 -104 3 -182 6 -175 2 6 11 12 18 12 17 0 23 -114 15
-288 l-5 -113 40 3 40 3 3 350 c1 193 0 360 -3 373 -5 19 -12 22 -60 22 l-55
0 1 -187z"/>
<path d="M1117 2094 c-4 -4 -7 -172 -7 -374 l0 -367 33 -5 c17 -3 47 -3 65 -1
l32 5 -1 212 c-1 116 -4 283 -8 371 l-6 160 -50 3 c-28 2 -54 0 -58 -4z"/>
<path d="M1277 2093 c-2 -4 -6 -172 -8 -373 l-4 -365 63 -3 62 -3 -2 373 -3
373 -52 3 c-28 2 -53 -1 -56 -5z"/>
<path d="M1880 1920 c-7 -14 -9 -38 -5 -64 3 -22 8 -89 11 -148 6 -106 5 -108
-16 -108 -21 0 -22 -3 -18 -110 3 -115 16 -148 51 -134 21 8 24 21 33 137 6
96 6 98 -16 104 -22 6 -23 7 -16 132 8 156 7 194 -4 205 -4 4 -13 -2 -20 -14z"/>
<path d="M1766 1774 c-10 -27 -7 -44 8 -38 8 3 17 1 20 -5 4 -6 -5 -13 -19
-17 l-25 -6 2 -177 3 -176 32 -3 c29 -3 32 0 38 30 8 42 0 332 -10 376 -8 35
-38 45 -49 16z"/>
<path d="M64 1700 c-13 -5 -23 -20 -25 -37 -6 -42 5 -250 13 -258 4 -4 55 -8
113 -9 137 -1 135 -4 135 160 0 152 -2 154 -130 153 -47 0 -95 -4 -106 -9z
m109 -88 c31 -10 54 -21 51 -25 -4 -4 -2 -7 4 -7 7 0 12 5 12 11 0 17 30 -18
32 -38 0 -10 5 2 9 27 5 31 6 14 4 -53 -3 -54 -7 -102 -9 -106 -3 -4 -54 -7
-113 -7 l-108 1 -3 102 c-3 110 -5 104 53 111 6 1 36 -6 68 -16z"/>
<path d="M349 1689 c-21 -21 -21 -28 -15 -148 4 -69 11 -130 16 -135 5 -5 54
-11 108 -14 92 -4 101 -3 121 17 19 19 21 32 21 151 0 155 5 150 -134 150 -85
0 -99 -3 -117 -21z"/>
<path d="M100 1371 c-20 -4 -41 -11 -48 -15 -17 -10 -17 -267 0 -284 17 -17
222 -16 235 1 6 6 13 69 17 138 6 113 4 127 -12 142 -21 19 -137 30 -192 18z"/>
<path d="M349 1349 c-21 -21 -21 -27 -15 -148 4 -69 11 -130 16 -135 5 -5 54
-11 108 -14 92 -4 101 -3 121 17 19 19 21 32 21 151 0 155 5 150 -134 150 -85
0 -99 -3 -117 -21z"/>
<path d="M1415 1300 c-3 -5 -3 -14 0 -20 4 -6 163 -10 446 -10 432 0 439 0
439 20 0 20 -7 20 -439 20 -283 0 -442 -4 -446 -10z"/>
<path d="M676 1259 c-22 -25 -26 -41 -26 -90 0 -53 2 -59 21 -59 20 0 21 -4
17 -90 -4 -75 -2 -92 11 -99 11 -7 2 -11 -32 -16 l-47 -7 0 -113 c0 -127 -2
-125 80 -125 46 0 49 1 55 31 10 43 -5 408 -16 415 -5 3 -9 38 -9 79 0 112
-10 126 -54 74z"/>
<path d="M832 1267 c-18 -19 -22 -35 -22 -90 0 -57 3 -67 18 -67 15 0 17 -10
15 -92 -1 -59 2 -95 9 -99 6 -4 -9 -10 -33 -14 l-44 -6 5 -117 5 -117 60 0 60
0 8 115 c5 72 4 122 -2 135 -5 11 -13 92 -16 180 -8 196 -17 221 -63 172z"/>
<path d="M1019 1283 c-1 -5 0 -17 1 -28 2 -16 0 -17 -14 -6 -13 11 -17 9 -26
-14 -5 -14 -10 -49 -10 -76 0 -42 3 -49 20 -49 18 0 19 -6 16 -90 -2 -72 0
-92 12 -99 10 -6 0 -10 -32 -15 l-46 -7 0 -108 c0 -70 4 -111 12 -119 18 -18
103 -15 118 3 10 12 11 61 6 218 -4 111 -12 206 -17 212 -5 5 -9 41 -9 81 0
40 -3 79 -6 88 -6 16 -23 22 -25 9z"/>
<path d="M1182 1282 c-7 -5 -11 -15 -9 -23 2 -8 2 -11 0 -7 -2 4 -11 4 -19 1
-21 -8 -20 -143 1 -143 20 0 22 -126 3 -133 -10 -4 -10 -6 0 -6 6 -1 12 -12
12 -25 0 -15 7 -26 18 -29 9 -2 -7 -7 -35 -12 l-53 -8 1 -71 c0 -39 4 -91 7
-116 l7 -45 60 0 60 0 3 50 c6 83 -19 518 -32 547 -7 19 -15 25 -24 20z"/>
<path d="M1322 1267 c-18 -19 -22 -35 -22 -90 0 -61 2 -67 21 -67 11 0 18 -4
15 -8 -7 -11 -8 -120 -2 -159 5 -30 3 -32 -35 -38 l-40 -7 7 -111 c4 -63 12
-115 18 -119 15 -10 104 -10 110 0 15 25 -6 556 -24 600 -12 28 -21 28 -48 -1z"/>
<path d="M1420 1225 l0 -25 434 0 c239 0 441 3 449 6 14 5 13 8 -1 25 -16 18
-35 19 -449 19 l-433 0 0 -25z"/>
<path d="M1420 1160 c0 -21 3 -21 455 -18 360 2 457 6 467 16 11 11 8 12 -14
7 -18 -5 -28 -3 -28 4 0 8 -125 11 -440 11 -436 0 -440 0 -440 -20z"/>
<path d="M1453 1070 c-37 -15 -26 -29 16 -23 55 7 58 -20 10 -68 -84 -84 -38
-215 78 -226 74 -8 119 15 144 73 28 63 19 106 -32 157 -21 22 -39 43 -39 48
0 5 18 9 39 9 48 0 62 16 26 30 -32 12 -212 12 -242 0z m201 -130 c31 -48 32
-67 3 -101 -46 -55 -98 -60 -144 -17 -17 16 -23 33 -23 64 0 55 42 94 99 94
34 0 42 -5 65 -40z"/>
<path d="M1773 1073 c-12 -2 -27 -11 -34 -19 -10 -13 -6 -14 29 -8 57 9 67
-16 23 -56 -68 -63 -68 -157 0 -215 l24 -20 -18 22 c-18 21 -18 21 1 16 11 -2
22 -13 25 -24 4 -15 14 -19 54 -19 60 0 91 16 120 59 40 60 21 153 -38 188
-44 26 -37 43 17 43 50 0 58 19 13 31 -26 8 -181 9 -216 2z"/>
<path d="M2076 1071 c-45 -9 -47 -34 -3 -26 28 5 37 3 45 -11 8 -14 3 -24 -23
-48 -58 -55 -64 -141 -14 -198 11 -13 18 -18 15 -11 -9 16 7 24 24 12 12 -7
13 -11 2 -18 -37 -23 93 -30 137 -7 81 42 89 165 16 223 -47 37 -45 53 6 53
45 0 50 19 8 31 -30 9 -174 9 -213 0z m171 -139 c15 -15 31 -25 36 -24 4 1 7
-13 7 -30 l-1 -33 -14 25 -15 25 6 -27 c4 -21 0 -33 -20 -52 -24 -24 -64 -37
-51 -17 3 5 1 12 -4 16 -6 3 -8 12 -4 20 3 9 -1 15 -10 15 -14 0 -20 14 -31
81 -4 23 -1 25 21 21 17 -3 24 -1 19 6 -12 19 33 0 61 -26z"/>
<path d="M233 999 c-23 -6 -35 -18 -39 -35 -9 -37 5 -246 18 -261 15 -19 211
-18 227 1 7 8 14 69 18 142 5 115 4 131 -11 143 -21 18 -167 25 -213 10z m82
-87 c6 -4 10 -19 10 -34 1 -25 -6 -33 -27 -29 -5 0 -8 -3 -8 -9 0 -5 6 -10 13
-10 11 0 15 -28 7 -50 -1 -3 -1 -20 0 -37 l2 -33 -51 0 -51 0 0 54 c0 29 -2
75 -5 102 -3 36 -2 42 4 24 8 -22 9 -23 10 -4 1 11 4 24 8 27 9 9 75 9 88 -1z"/>
<path d="M1458 703 c-34 -9 -20 -29 17 -25 51 6 55 -18 11 -62 -56 -57 -60
-132 -11 -191 14 -17 24 -25 23 -20 -2 6 2 11 7 13 6 1 10 -4 10 -10 0 -30 88
-37 136 -13 88 46 90 197 4 237 -34 15 -32 38 3 39 15 0 36 4 47 8 19 8 19 8
-2 19 -21 12 -207 15 -245 5z"/>
<path d="M1767 701 c-32 -12 -23 -26 14 -23 50 4 59 -21 20 -53 -92 -78 -54
-229 62 -242 86 -10 148 31 163 106 9 45 -21 117 -57 138 -30 18 -39 42 -16
44 80 7 92 14 53 29 -31 11 -211 13 -239 1z"/>
<path d="M2068 703 c-36 -9 -19 -29 22 -25 35 4 40 2 40 -17 0 -11 -11 -27
-24 -36 -35 -23 -60 -86 -52 -131 9 -45 36 -90 46 -74 4 6 14 8 24 4 12 -5 14
-10 6 -20 -9 -10 -4 -14 25 -20 57 -10 106 2 140 36 27 28 30 36 30 96 0 65
-1 67 -43 104 -38 34 -41 40 -25 47 10 5 28 8 41 7 30 -2 37 12 13 25 -19 11
-208 13 -243 4z"/>
<path d="M41 654 c-22 -16 -22 -20 -19 -145 2 -75 8 -133 14 -139 11 -11 216
-16 233 -6 5 3 12 65 16 138 7 129 7 132 -15 150 -31 25 -194 26 -229 2z"/>
<path d="M348 659 c-22 -9 -27 -18 -33 -60 -4 -28 -4 -53 -1 -56 3 -4 6 1 6
10 0 10 3 17 8 17 4 0 8 -46 8 -103 1 -99 1 -100 -6 -27 l-6 75 -2 -70 c-1
-44 3 -76 10 -83 8 -8 49 -12 120 -12 96 0 108 2 118 19 5 11 10 78 10 149 0
128 0 129 -25 140 -31 14 -169 14 -207 1z"/>
<path d="M860 613 c0 -32 -14 -45 -22 -21 -5 13 -28 2 -28 -13 0 -6 3 -8 8 -6
12 8 12 -67 -1 -75 -9 -6 -9 -8 1 -8 7 0 10 -5 7 -10 -3 -6 1 -13 9 -16 9 -3
14 -10 11 -14 -11 -18 -7 -173 5 -180 13 -8 -20 -20 -58 -20 l-23 0 6 -107 c4
-60 8 -114 11 -121 3 -9 21 -12 61 -10 l58 3 -3 215 c-1 120 -7 219 -12 224
-6 6 -10 44 -10 85 0 42 -5 83 -10 91 -7 11 -10 7 -10 -17z"/>
<path d="M1010 613 c0 -22 -2 -25 -10 -13 -17 25 -30 -7 -30 -72 0 -49 3 -58
18 -58 16 0 18 -7 14 -62 -3 -35 -9 -66 -14 -69 -6 -4 -6 -8 2 -11 6 -2 13
-18 14 -36 2 -26 -2 -32 -18 -34 -12 0 -28 -2 -36 -2 -13 -1 -15 -20 -12 -116
2 -75 7 -117 15 -122 14 -9 79 -10 101 -2 13 5 16 23 16 88 0 139 -21 490 -30
514 -13 31 -30 28 -30 -5z"/>
<path d="M1179 635 c-1 -6 -1 -18 0 -27 1 -10 -3 -18 -8 -18 -6 0 -11 5 -11
11 0 5 -5 7 -11 4 -6 -4 -8 -13 -5 -21 3 -8 1 -25 -4 -39 -6 -16 -6 -25 0 -25
6 0 8 -11 4 -25 -5 -19 -2 -25 11 -25 11 0 15 -6 11 -17 -4 -15 -7 -86 -5
-158 0 -11 5 -22 10 -26 6 -3 -9 -9 -32 -13 l-44 -6 3 -115 c4 -129 4 -130 88
-123 l39 3 9 114 c6 82 6 119 -3 132 -6 10 -11 54 -12 96 -2 138 -14 262 -26
275 -7 6 -14 8 -14 3z"/>
<path d="M1339 635 c-1 -6 -1 -18 0 -27 1 -10 -3 -18 -8 -18 -6 0 -11 8 -11
18 -1 16 -2 16 -14 -1 -9 -11 -14 -44 -15 -83 0 -54 2 -64 17 -64 15 0 17 -11
15 -94 -2 -82 0 -95 15 -99 9 -2 -4 -7 -30 -11 l-48 -8 0 -114 c0 -128 1 -129
86 -122 l39 3 8 80 c4 44 5 103 2 130 -2 28 -11 128 -18 222 -8 105 -18 178
-25 185 -7 7 -13 8 -13 3z"/>
<path d="M716 585 c-5 -11 -9 -36 -8 -55 0 -19 -5 -38 -11 -42 -8 -5 -6 -8 6
-8 9 0 17 -4 17 -10 0 -5 -7 -10 -15 -10 -11 0 -15 -14 -17 -57 0 -32 -2 -71
-4 -88 -1 -17 4 -35 12 -41 12 -9 5 -13 -31 -18 l-46 -7 3 -117 3 -117 65 0
65 0 -3 215 c-2 118 -7 219 -12 225 -5 6 -10 42 -12 80 -2 52 -5 65 -12 50z"/>
<path d="M1505 344 c-11 -3 -30 -7 -42 -10 -13 -2 -23 -9 -23 -15 0 -7 11 -9
30 -6 19 4 34 1 45 -9 21 -21 19 -29 -10 -42 -63 -29 -75 -158 -20 -210 16
-15 23 -20 16 -10 -7 9 -8 19 -3 22 13 8 36 -20 28 -33 -9 -14 55 -25 93 -16
71 15 119 92 104 165 -3 19 -22 49 -45 70 -21 21 -38 43 -38 49 0 6 19 11 47
11 41 0 45 2 33 15 -15 15 -174 29 -215 19z"/>
<path d="M1815 344 c-11 -3 -30 -7 -42 -10 -13 -2 -23 -9 -23 -15 0 -6 10 -10
23 -9 64 6 77 -16 31 -53 -30 -23 -54 -74 -54 -113 0 -32 34 -96 61 -112 34
-21 101 -25 142 -9 54 23 79 69 74 137 -4 48 -8 58 -44 90 -48 42 -45 60 8 60
39 0 52 13 25 23 -21 8 -178 17 -201 11z"/>
<path d="M2120 343 c-54 -8 -70 -14 -70 -24 0 -7 11 -9 30 -6 20 4 34 1 45
-10 15 -14 13 -18 -18 -47 -38 -35 -59 -92 -50 -136 3 -16 19 -43 35 -62 17
-18 24 -25 17 -14 -12 16 -11 18 6 14 12 -2 19 -10 17 -20 -4 -23 58 -34 107
-19 104 31 128 171 42 239 -44 34 -40 52 10 52 28 0 39 4 37 13 -7 20 -132 32
-208 20z"/>
<path d="M87 331 c-27 -4 -53 -14 -58 -22 -5 -7 -9 -71 -9 -140 0 -101 3 -129
15 -139 16 -13 215 -18 234 -6 11 7 26 245 17 274 -4 12 -15 23 -24 26 -35 10
-129 14 -175 7z m66 -87 c31 -4 44 -10 40 -18 -4 -6 -7 -20 -8 -31 0 -14 -8
-20 -29 -22 -39 -3 -46 -13 -9 -13 31 0 31 0 35 -60 l3 -60 -77 0 -78 0 0 99
c0 118 3 121 123 105z"/>
<path d="M390 331 c-61 -9 -70 -16 -70 -57 0 -35 1 -36 38 -33 20 1 53 1 72 0
33 -1 35 -3 36 -36 0 -32 -2 -35 -28 -35 -19 0 -27 -4 -22 -11 3 -6 14 -9 23
-6 13 3 16 -5 16 -54 l0 -59 -41 -6 c-78 -11 -78 -11 -85 101 l-5 100 -2 -102
c-1 -72 2 -104 11 -110 19 -12 189 -16 218 -5 25 10 26 12 33 143 6 120 4 135
-11 150 -21 19 -115 30 -183 20z"/>
</g>
</svg>
